# xmcd CD database file
#
# Track frame offsets:
#	150
#	19666
#	47125
#	67152
#	91903
#	106848
#	127830
#	165629
#	174534
#
# Disc length: 2651 seconds
#
# Revision: 0
# Processed by: cddbd v1.5.2PL0 Copyright (c) Steve Scherf et al.
# Submitted via: CDex 1.51
#
DISCID=6d0a5909
DTITLE=Pecek trio - Pecek trio
DYEAR=1900
DGENRE=Jazz
TTITLE0=New York - New York
TTITLE1=The girl from ipanema
TTITLE2=Wonderful world
TTITLE3=You are sunshine of my life
TTITLE4=Memory
TTITLE5=Bye bye blackbird
TTITLE6=As time goe bby
TTITLE7=Funicula-funicula
TTITLE8=Night and day
EXTD=
EXTT0=
EXTT1=
EXTT2=
EXTT3=
EXTT4=
EXTT5=
EXTT6=
EXTT7=
EXTT8=
PLAYORDER=
